<svg width="153" height="35" viewBox="0 0 153 35" fill="none" xmlns="http://www.w3.org/2000/svg">
<path d="M42.88 10H49C50.4933 10 51.82 10.2933 52.98 10.88C54.14 11.4533 55.04 12.2733 55.68 13.34C56.32 14.3933 56.64 15.6133 56.64 17C56.64 18.3867 56.32 19.6133 55.68 20.68C55.04 21.7333 54.14 22.5533 52.98 23.14C51.82 23.7133 50.4933 24 49 24H42.88V10ZM48.88 21.8C49.9067 21.8 50.8067 21.6067 51.58 21.22C52.3667 20.82 52.9667 20.26 53.38 19.54C53.8067 18.8067 54.02 17.96 54.02 17C54.02 16.04 53.8067 15.2 53.38 14.48C52.9667 13.7467 52.3667 13.1867 51.58 12.8C50.8067 12.4 49.9067 12.2 48.88 12.2H45.48V21.8H48.88ZM63.9634 24.14C62.8834 24.14 61.9101 23.9067 61.0434 23.44C60.1768 22.9733 59.4968 22.3267 59.0034 21.5C58.5234 20.66 58.2834 19.7133 58.2834 18.66C58.2834 17.6067 58.5234 16.6667 59.0034 15.84C59.4968 15.0133 60.1768 14.3667 61.0434 13.9C61.9101 13.4333 62.8834 13.2 63.9634 13.2C65.0568 13.2 66.0368 13.4333 66.9034 13.9C67.7701 14.3667 68.4434 15.0133 68.9234 15.84C69.4168 16.6667 69.6634 17.6067 69.6634 18.66C69.6634 19.7133 69.4168 20.66 68.9234 21.5C68.4434 22.3267 67.7701 22.9733 66.9034 23.44C66.0368 23.9067 65.0568 24.14 63.9634 24.14ZM63.9634 22C64.8834 22 65.6434 21.6933 66.2434 21.08C66.8434 20.4667 67.1434 19.66 67.1434 18.66C67.1434 17.66 66.8434 16.8533 66.2434 16.24C65.6434 15.6267 64.8834 15.32 63.9634 15.32C63.0434 15.32 62.2834 15.6267 61.6834 16.24C61.0968 16.8533 60.8034 17.66 60.8034 18.66C60.8034 19.66 61.0968 20.4667 61.6834 21.08C62.2834 21.6933 63.0434 22 63.9634 22ZM82.6541 13.32V22.38C82.6541 26.14 80.7341 28.02 76.8941 28.02C75.8674 28.02 74.8941 27.8867 73.9741 27.62C73.0541 27.3667 72.2941 26.9933 71.6941 26.5L72.8141 24.62C73.2807 25.0067 73.8674 25.3133 74.5741 25.54C75.2941 25.78 76.0207 25.9 76.7541 25.9C77.9274 25.9 78.7874 25.6333 79.3341 25.1C79.8807 24.5667 80.1541 23.7533 80.1541 22.66V22.1C79.7274 22.5667 79.2074 22.92 78.5941 23.16C77.9807 23.4 77.3074 23.52 76.5741 23.52C75.5607 23.52 74.6407 23.3067 73.8141 22.88C73.0007 22.44 72.3541 21.8267 71.8741 21.04C71.4074 20.2533 71.1741 19.3533 71.1741 18.34C71.1741 17.3267 71.4074 16.4333 71.8741 15.66C72.3541 14.8733 73.0007 14.2667 73.8141 13.84C74.6407 13.4133 75.5607 13.2 76.5741 13.2C77.3474 13.2 78.0474 13.3267 78.6741 13.58C79.3141 13.8333 79.8474 14.22 80.2741 14.74V13.32H82.6541ZM76.9541 21.4C77.9007 21.4 78.6741 21.12 79.2741 20.56C79.8874 19.9867 80.1941 19.2467 80.1941 18.34C80.1941 17.4467 79.8874 16.72 79.2741 16.16C78.6741 15.6 77.9007 15.32 76.9541 15.32C75.9941 15.32 75.2074 15.6 74.5941 16.16C73.9941 16.72 73.6941 17.4467 73.6941 18.34C73.6941 19.2467 73.9941 19.9867 74.5941 20.56C75.2074 21.12 75.9941 21.4 76.9541 21.4ZM86.1808 10H88.7808V21.8H96.1008V24H86.1808V10ZM107.856 18.72C107.856 18.8933 107.842 19.14 107.816 19.46H99.4358C99.5824 20.2467 99.9624 20.8733 100.576 21.34C101.202 21.7933 101.976 22.02 102.896 22.02C104.069 22.02 105.036 21.6333 105.796 20.86L107.136 22.4C106.656 22.9733 106.049 23.4067 105.316 23.7C104.582 23.9933 103.756 24.14 102.836 24.14C101.662 24.14 100.629 23.9067 99.7358 23.44C98.8424 22.9733 98.1491 22.3267 97.6558 21.5C97.1758 20.66 96.9358 19.7133 96.9358 18.66C96.9358 17.62 97.1691 16.6867 97.6358 15.86C98.1158 15.02 98.7758 14.3667 99.6158 13.9C100.456 13.4333 101.402 13.2 102.456 13.2C103.496 13.2 104.422 13.4333 105.236 13.9C106.062 14.3533 106.702 15 107.156 15.84C107.622 16.6667 107.856 17.6267 107.856 18.72ZM102.456 15.2C101.656 15.2 100.976 15.44 100.416 15.92C99.8691 16.3867 99.5358 17.0133 99.4158 17.8H105.476C105.369 17.0267 105.042 16.4 104.496 15.92C103.949 15.44 103.269 15.2 102.456 15.2ZM120.297 18.72C120.297 18.8933 120.284 19.14 120.257 19.46H111.877C112.024 20.2467 112.404 20.8733 113.017 21.34C113.644 21.7933 114.417 22.02 115.337 22.02C116.511 22.02 117.477 21.6333 118.237 20.86L119.577 22.4C119.097 22.9733 118.491 23.4067 117.757 23.7C117.024 23.9933 116.197 24.14 115.277 24.14C114.104 24.14 113.071 23.9067 112.177 23.44C111.284 22.9733 110.591 22.3267 110.097 21.5C109.617 20.66 109.377 19.7133 109.377 18.66C109.377 17.62 109.611 16.6867 110.077 15.86C110.557 15.02 111.217 14.3667 112.057 13.9C112.897 13.4333 113.844 13.2 114.897 13.2C115.937 13.2 116.864 13.4333 117.677 13.9C118.504 14.3533 119.144 15 119.597 15.84C120.064 16.6667 120.297 17.6267 120.297 18.72ZM114.897 15.2C114.097 15.2 113.417 15.44 112.857 15.92C112.311 16.3867 111.977 17.0133 111.857 17.8H117.917C117.811 17.0267 117.484 16.4 116.937 15.92C116.391 15.44 115.711 15.2 114.897 15.2ZM122.699 9.16H125.199V24H122.699V9.16ZM133.28 24.14C132.2 24.14 131.227 23.9067 130.36 23.44C129.493 22.9733 128.813 22.3267 128.32 21.5C127.84 20.66 127.6 19.7133 127.6 18.66C127.6 17.6067 127.84 16.6667 128.32 15.84C128.813 15.0133 129.493 14.3667 130.36 13.9C131.227 13.4333 132.2 13.2 133.28 13.2C134.373 13.2 135.353 13.4333 136.22 13.9C137.087 14.3667 137.76 15.0133 138.24 15.84C138.733 16.6667 138.98 17.6067 138.98 18.66C138.98 19.7133 138.733 20.66 138.24 21.5C137.76 22.3267 137.087 22.9733 136.22 23.44C135.353 23.9067 134.373 24.14 133.28 24.14ZM133.28 22C134.2 22 134.96 21.6933 135.56 21.08C136.16 20.4667 136.46 19.66 136.46 18.66C136.46 17.66 136.16 16.8533 135.56 16.24C134.96 15.6267 134.2 15.32 133.28 15.32C132.36 15.32 131.6 15.6267 131 16.24C130.413 16.8533 130.12 17.66 130.12 18.66C130.12 19.66 130.413 20.4667 131 21.08C131.6 21.6933 132.36 22 133.28 22ZM146.17 24.14C145.09 24.14 144.117 23.9067 143.25 23.44C142.384 22.9733 141.704 22.3267 141.21 21.5C140.73 20.66 140.49 19.7133 140.49 18.66C140.49 17.6067 140.73 16.6667 141.21 15.84C141.704 15.0133 142.384 14.3667 143.25 13.9C144.117 13.4333 145.09 13.2 146.17 13.2C147.264 13.2 148.244 13.4333 149.11 13.9C149.977 14.3667 150.65 15.0133 151.13 15.84C151.624 16.6667 151.87 17.6067 151.87 18.66C151.87 19.7133 151.624 20.66 151.13 21.5C150.65 22.3267 149.977 22.9733 149.11 23.44C148.244 23.9067 147.264 24.14 146.17 24.14ZM146.17 22C147.09 22 147.85 21.6933 148.45 21.08C149.05 20.4667 149.35 19.66 149.35 18.66C149.35 17.66 149.05 16.8533 148.45 16.24C147.85 15.6267 147.09 15.32 146.17 15.32C145.25 15.32 144.49 15.6267 143.89 16.24C143.304 16.8533 143.01 17.66 143.01 18.66C143.01 19.66 143.304 20.4667 143.89 21.08C144.49 21.6933 145.25 22 146.17 22Z" fill="url(#paint0_linear)"/>
<rect width="35" height="35" rx="10" fill="#FAD475" fill-opacity="0.97"/>
<path d="M31.1341 8.15956C29.647 6.26196 27.4162 4 25.2344 4C24.5725 4 23.9053 4.45653 23.0047 5.31047C21.7295 4.73796 18.9241 4 17.5 4C16.0748 4 13.2693 4.73848 11.9953 5.31047C11.0948 4.45653 10.4276 4 9.76564 4C7.58384 4 5.35311 6.26196 3.86598 8.15956C2.7579 9.57349 1 12.2318 1 13.3462C1 15.4391 1.06722 16.3787 2.75313 18.6423C4.04 20.3701 4.17639 22.887 5.03961 24.2538C5.60441 25.1481 6.4561 25.5045 7.43765 25.2574C8.4158 25.0112 9.05092 24.1808 9.33232 22.7854C10.4209 24.2953 10.2377 25.1828 10.3096 25.6963C10.3819 27.6526 13.7059 31 17.5 31C21.288 31 24.618 27.6562 24.6905 25.6964C24.762 25.1854 24.5727 24.2966 25.6668 22.7814C25.9545 24.2121 26.6994 25.334 28.154 25.334C30.8801 25.334 30.4254 21.0881 32.2469 18.6424C33.9328 16.3788 34 15.4392 34 13.3462C34.0001 12.2318 32.2422 9.57349 31.1341 8.15956ZM17.5 23.2115C16.9631 23.2115 16.3272 22.3954 16.0648 21.88C16.8273 21.5784 18.1723 21.5783 18.9352 21.88C18.6728 22.3954 18.0369 23.2115 17.5 23.2115ZM17.5 27.3629C18.17 27.8725 19.0454 28.1801 19.9449 28.2937C18.3188 29.1315 16.683 29.1325 15.0551 28.2937C15.9545 28.1801 16.83 27.8725 17.5 27.3629ZM30.5969 17.3962C28.9732 19.5762 28.7241 22.7336 28.1344 23.2557C27.7663 23.222 27.6302 22.0897 27.5974 21.7187C27.4284 19.8042 27.8126 17.069 27.8126 15.4231C27.8126 12.6141 25.7299 8.38724 25.6412 8.20869C25.3865 7.69569 24.7669 7.48787 24.2576 7.74424C23.7482 8.00074 23.5418 8.62453 23.7964 9.13746C24.3398 10.2319 25.75 13.4945 25.75 15.4231C25.75 16.5065 25.5533 18.2398 25.5038 19.9037C24.9462 20.3876 22.6563 22.5424 22.6563 25.2885C22.6563 26.5757 19.0697 26.5795 18.4111 25.3231C18.3834 25.2701 18.3451 25.2094 18.3042 25.1579C19.8536 24.6601 21.1094 22.6962 21.1094 21.6538C21.1094 18.8664 13.8907 18.8664 13.8907 21.6538C13.8907 22.6958 15.1422 24.6587 16.6958 25.1579C16.6554 25.2087 16.6172 25.2691 16.589 25.323C15.9281 26.5833 12.3438 26.5734 12.3438 25.2885C12.3438 22.5424 10.0539 20.3876 9.49629 19.9037C9.44853 18.3002 9.25002 16.4798 9.25002 15.4231C9.25002 13.4992 10.6604 10.2333 11.2037 9.13746C11.4584 8.62453 11.2519 8.00074 10.7424 7.74424C10.2331 7.48774 9.61353 7.69569 9.35888 8.20869C9.27019 8.38724 7.18751 12.6141 7.18751 15.4231C7.18751 17.0698 7.57152 19.8056 7.40259 21.7187C7.36985 22.0897 7.23379 23.2219 6.86563 23.2557C6.26976 22.7281 6.03257 19.584 4.40307 17.3962C3.07675 15.6154 3.06263 15.13 3.06244 13.4027C3.18206 12.9243 4.15931 11.0986 5.62948 9.2639C7.17952 7.32944 8.67993 6.15072 9.67296 6.0803C9.97763 6.23444 10.6088 6.83695 11.0989 7.33048C11.4894 7.72379 12.1193 7.73742 12.5263 7.36046C13.0387 7.00823 16.1212 6.07692 17.5 6.07692C18.8788 6.07692 21.9614 7.00823 22.4738 7.36046C22.8803 7.73697 23.5102 7.72418 23.9011 7.33048C24.752 6.47368 25.1455 6.17272 25.3272 6.0803C26.3203 6.15085 27.8206 7.32963 29.3705 9.2639C30.8407 11.0986 31.8179 12.9243 31.9376 13.4027C31.9374 15.13 31.9233 15.6154 30.5969 17.3962Z" fill="black" fill-opacity="0.9"/>
<path d="M12.3047 15.8594C13.0598 15.8594 13.6719 15.2473 13.6719 14.4922C13.6719 13.7371 13.0598 13.125 12.3047 13.125C11.5496 13.125 10.9375 13.7371 10.9375 14.4922C10.9375 15.2473 11.5496 15.8594 12.3047 15.8594Z" fill="black"/>
<path d="M22.6953 15.8594C23.4504 15.8594 24.0625 15.2473 24.0625 14.4922C24.0625 13.7371 23.4504 13.125 22.6953 13.125C21.9402 13.125 21.3281 13.7371 21.3281 14.4922C21.3281 15.2473 21.9402 15.8594 22.6953 15.8594Z" fill="black"/>
<defs>
<linearGradient id="paint0_linear" x1="83.5" y1="5" x2="85.5" y2="5" gradientUnits="userSpaceOnUse">
<stop stop-color="#F2BA26"/>
<stop offset="0.9999" stop-color="#C4C4C4"/>
<stop offset="1" stop-color="#6C6654"/>
</linearGradient>
</defs>
</svg>
